<?xml version="1.0" encoding="UTF-8"?><svg xmlns="http://www.w3.org/2000/svg" viewBox="0 0 2000 2000"><defs><style>.cls-1{opacity:.07;}.cls-2{fill:#f99175;}.cls-3,.cls-4{fill:#001960;}.cls-5{fill:#e62143;}.cls-6{fill:#ea7e65;}.cls-7,.cls-8{fill:#fff;}.cls-9,.cls-10{fill:#ffbba6;}.cls-11{fill:#6d070f;}.cls-12{fill:#c0272d;}.cls-13{fill:#3f2f22;}.cls-14{fill:#0d29a5;}.cls-15{fill:#3c085e;}.cls-16{fill:#5e4835;}.cls-17{fill:#4f3e2c;}.cls-18{stroke-miterlimit:10;stroke-width:3.16px;}.cls-18,.cls-19{fill:none;stroke:#fff;}.cls-20{mix-blend-mode:multiply;}.cls-19{stroke-linecap:round;stroke-linejoin:round;stroke-width:10.61px;}.cls-21,.cls-8{opacity:.4;}.cls-10,.cls-4{fill-rule:evenodd;}.cls-22{isolation:isolate;}.cls-23{fill:#44332a;opacity:.74;}</style></defs><g class="cls-22"><g id="Layer_1"><g><g><circle class="cls-7" cx="1070.04" cy="1020.01" r="654.12"/><g><path class="cls-14" d="M1070.04,1699.14c-91.67,0-180.61-17.96-264.35-53.38-80.87-34.21-153.5-83.17-215.86-145.53-62.36-62.36-111.33-134.99-145.53-215.86-35.42-83.74-53.38-172.68-53.38-264.35s17.96-180.61,53.38-264.35c34.21-80.87,83.17-153.5,145.53-215.86,62.36-62.36,134.99-111.33,215.86-145.53,83.74-35.42,172.68-53.38,264.35-53.38s180.61,17.96,264.35,53.38c80.87,34.21,153.5,83.17,215.86,145.53,62.36,62.36,111.33,134.99,145.53,215.86,35.42,83.74,53.38,172.68,53.38,264.35s-17.96,180.61-53.38,264.35c-34.21,80.87-83.17,153.5-145.53,215.86-62.36,62.36-134.99,111.33-215.86,145.53-83.74,35.42-172.68,53.38-264.35,53.38Zm0-1308.25c-84.94,0-167.33,16.63-244.88,49.43-74.91,31.69-142.2,77.05-199.98,134.84-57.79,57.79-103.15,125.07-134.84,199.98-32.8,77.55-49.43,159.93-49.43,244.88s16.63,167.33,49.43,244.88c31.69,74.91,77.05,142.2,134.84,199.98,57.79,57.79,125.07,103.15,199.98,134.84,77.55,32.8,159.93,49.43,244.88,49.43s167.33-16.63,244.88-49.43c74.91-31.69,142.2-77.05,199.98-134.84s103.15-125.07,134.84-199.98c32.8-77.55,49.43-159.93,49.43-244.88s-16.63-167.33-49.43-244.88c-31.69-74.91-77.05-142.2-134.84-199.98-57.79-57.79-125.07-103.15-199.98-134.84-77.55-32.8-159.93-49.43-244.88-49.43Z"/><path class="cls-14" d="M1070.04,1601.61c-78.51,0-154.68-15.38-226.39-45.71-69.26-29.29-131.45-71.23-184.86-124.64-53.41-53.41-95.34-115.61-124.64-184.86-30.33-71.71-45.71-147.88-45.71-226.39s15.38-154.68,45.71-226.39c29.29-69.26,71.23-131.45,124.64-184.86s115.61-95.34,184.86-124.64c71.71-30.33,147.88-45.71,226.39-45.71s154.68,15.38,226.39,45.71c69.26,29.29,131.45,71.23,184.86,124.64,53.41,53.41,95.34,115.61,124.64,184.86,30.33,71.71,45.71,147.88,45.71,226.39s-15.38,154.68-45.71,226.39c-29.29,69.26-71.23,131.45-124.64,184.86-53.41,53.41-115.61,95.34-184.86,124.64-71.71,30.33-147.88,45.71-226.39,45.71Zm0-1137.12c-75,0-147.75,14.69-216.23,43.65-66.15,27.98-125.56,68.04-176.58,119.06s-91.08,110.43-119.06,176.58c-28.96,68.48-43.65,141.23-43.65,216.23s14.69,147.75,43.65,216.23c27.98,66.15,68.04,125.56,119.06,176.58s110.43,91.08,176.58,119.06c68.48,28.96,141.23,43.65,216.23,43.65s147.75-14.69,216.23-43.65c66.15-27.98,125.56-68.04,176.58-119.06s91.08-110.43,119.06-176.58c28.96-68.48,43.65-141.23,43.65-216.23s-14.69-147.75-43.65-216.23c-27.98-66.15-68.04-125.56-119.06-176.58s-110.43-91.08-176.58-119.06c-68.48-28.96-141.23-43.65-216.23-43.65Z"/><g><path class="cls-8" d="M1641.49,652.81l-36.24,36.24-866.17,866.17-36.24,36.24c-40.61-26.12-78.39-56.61-113.01-91.24-15.76-15.76-30.66-32.17-44.68-49.2l35.54-35.54,884.82-884.83,35.54-35.54c17.03,14.03,33.44,28.93,49.2,44.69,34.63,34.62,65.12,72.4,91.24,113.01Z"/><path class="cls-8" d="M1126.1,343.16l-47.78,47.78L440.97,1028.29l-47.78,47.78c-1.51-18.56-2.27-37.25-2.27-56.06,0-21.87,1.02-43.58,3.06-65.1L945.77,403.12l59.17-59.17c21.52-2.04,43.23-3.06,65.1-3.06,18.81,0,37.5,.76,56.06,2.27Z"/><path class="cls-8" d="M1749.16,1020.01c0,17.91-.69,35.72-2.06,53.4l-57.67,57.67-565.99,565.99c-17.68,1.37-35.49,2.06-53.4,2.06-22.13,0-44.1-1.05-65.88-3.14l741.86-741.86c2.09,21.78,3.14,43.75,3.14,65.88Z"/><path class="cls-8" d="M1678.42,717.83l-37.47,37.47-835.62,835.62-37.47,37.47c-5.11-2.55-10.18-5.15-15.22-7.81l37.14-37.14,843.69-843.7,37.13-37.13c2.67,5.04,5.27,10.11,7.82,15.22Z"/></g><path class="cls-15" d="M1608.6,1020.01c0,72.72-14.24,143.25-42.31,209.62-27.13,64.13-65.96,121.73-115.43,171.2-49.47,49.47-107.07,88.3-171.2,115.43-66.37,28.07-136.9,42.31-209.62,42.31s-143.25-14.24-209.62-42.31c-64.13-27.13-121.73-65.96-171.2-115.43-49.47-49.47-88.3-107.07-115.43-171.2-28.07-66.37-42.31-136.9-42.31-209.62s14.24-143.25,42.31-209.62c27.13-64.13,65.96-121.73,115.43-171.2s107.07-88.3,171.2-115.43c66.37-28.07,136.9-42.31,209.62-42.31s143.25,14.24,209.62,42.31c64.13,27.13,121.73,65.96,171.2,115.43,49.47,49.47,88.3,107.07,115.43,171.2,28.07,66.37,42.31,136.9,42.31,209.62Z"/></g></g><g><g><g><path class="cls-10" d="M993.92,967.77v151.63c0,42.02,34.07,76.1,76.1,76.1s76.14-34.07,76.14-76.1v-199.55c0-42.06-34.07-76.14-76.14-76.14-21.01,0-40.04,8.52-53.83,22.31-12.74,12.74-20.97,30.02-22.15,49.16-.08,1.54-.12,51-.12,52.58Z"/><path class="cls-2" d="M1146.04,915.19c0,2.76,.12,117.55,.12,117.55,0,0-58.22,58.41-152.23,46.63v-159.51c0-42.06,34.07-76.14,76.14-76.14,21.01,0,40.04,8.52,53.83,22.31,12.74,12.74,20.97,30.02,22.15,49.16Z"/></g><path class="cls-14" d="M1365.57,1287.48c-8.56,37.1-17.44,85.11-24.09,149.3-1.65,16.01-3.17,33.03-4.51,51.13-2,1.15-4,2.28-6.02,3.38-16.58,9.2-33.69,17.52-51.29,24.97-66.37,28.07-136.9,42.31-209.62,42.31s-143.25-14.24-209.62-42.31c-19.74-8.35-38.86-17.81-57.31-28.35-21.25-287.29-87.49-300.32-40.45-367.54,50.24-23.47,155.46-48.61,205.87-56.54,3.26,31.99,39.48,55.18,101.51,64.68,59.82-10.07,97.26-32.89,101.51-64.68,48.99,7.71,150,31.72,201.51,54.56,1.49,.66,2.95,1.32,4.36,1.98,32.19,45.99,11.34,66.62-11.85,167.11Z"/><path class="cls-4" d="M993.92,1057.28c1.61,27.63,35.14,52.17,76.12,52.17,40.98,0,74.51-24.54,76.12-52.17,0,0,17.6,4.45,25.4,6.55-5.72,44.27-51.9,73.27-101.51,73.27-49.61,0-95.8-29-101.51-73.27,7.79-2.1,25.4-6.55,25.4-6.55Z"/></g><g><path class="cls-14" d="M1498.65,1346.22c-14.6,19.14-30.55,37.37-47.79,54.61-25.24,25.24-52.6,47.71-81.86,67.26-4.6,3.09-9.26,6.1-13.96,9.03-4.78-13.85-9.3-27.31-13.56-40.34-.87-2.67-1.73-5.33-2.58-7.97-36.59-113.09-53.39-191.28-54.31-194.8-13.1-50.05,8.74-102.27,48.69-116.4,13.8-4.88,27.39-4.2,39.78,.78,3.12,1.26,6.17,2.79,9.13,4.57,19.17,11.55,38.67,27.07,57.07,67.43,19.94,43.75,41.73,103.86,59.39,155.83Z"/><path class="cls-3" d="M1369,1468.09c-4.6,3.09-9.26,6.1-13.96,9.03-5.95,3.72-11.97,7.32-18.07,10.79-2,1.15-4,2.28-6.02,3.38,2.23-19.46,4.95-40.89,7.95-62.48,8.29-59.77,18.72-120.83,26.59-145.34l.08,4.01,3.43,180.61Z"/></g><g><path class="cls-9" d="M826.84,1234.78c28.77-26.45,42.37-61.28,21.7-86.38-20.66-25.11-63.87-27.14-96.52-4.54-5.13,3.55-142.75,78.76-356.23,270.64-24,21.57-26.91,63.65-9.61,84.67,17.31,21.02,51.16,24.26,78.68,5.77,111.09-66.57,247.51-164.94,361.97-270.17Z"/><path class="cls-9" d="M434.67,1512.63c25.35-9.16,56.46-55.21,45.56-86.72h0s-14.25-61.79-153.64-367.1l-73,27.07s45.58,243.79,112.54,381.82c21.32,43.96,43.19,54.1,68.55,44.94Z"/><path class="cls-14" d="M609.27,1431.7s156.91-108.27,229.55-182.57c35.14-35.95,54.56-79.91,27.63-112.45-27.01-32.66-87.04-32.06-129.53-2.54-3.74,2.6-89.6,52.6-219.71,162.35,14.26,22.34,51.42,102.78,92.05,135.22Z"/><path class="cls-3" d="M769.3,1269.96l11.8,48.21c-27.34,22.86-110.03,78.91-171.83,113.53-2.35-1.94-7.88-6.92-7.88-6.92,0,0,95.94-54.33,144.76-104.5,15.6-16.03,19.89-39.38,23.15-50.32Z"/></g><g><path class="cls-9" d="M383.67,911.15c-9.64,.08-18.69,7.96-21.33,14.55,0,0-22.45,48.9-30.11,47.89-7.08-.94-13.62-20.77-13.62-20.77-4.32-15.79-21.55-48.79-21.55-48.79l-24.36-100.87c-2.7-6.48-10.86-9.72-18.24-7.23-7.39,2.5-11.27,11.58-8.58,18.07l18.77,92.41s.69,2.75-2.63,3.94c-1.81,.65-4.25,1.36-5.78-1.22l-42.46-104.74c-2.69-6.5-10.84-10.18-18.22-7.68-7.38,2.5-11.17,9.56-8.48,16.05l41.71,108.8c1.51,3.1-2.47,6.53-5.08,3.42l-56.73-90.22c-2.55-6.14-10.28-9.21-17.26-6.85-6.99,2.36-10.58,9.25-8.03,15.39l56.51,102.54c2.14,4.57-2.2,6.62-3.94,3.71l.02-.02-56.45-65.68c-5.31-5.48-12.04-9.32-17.82-5.58-6.05,3.91-6.53,8.24-2.93,14.24l55.82,79.72c28.26,94.61,71.38,119.59,71.38,119.59,76.95,41.74,91.35-34.71,91.35-34.71,0,0,19.22-20.57,29.46-52.25,4.08-12.64,14.37-50.13,23.14-72.2,3.04-7.64,7.28-14.75,7.28-14.75,1.7-4.15-3.07-6.82-11.85-6.75Z"/><path class="cls-2" d="M212.46,990.29s62.34-6.75,78.51,55.42c0,0-21.1-47.05-78.51-55.42Z"/><path class="cls-2" d="M262.12,997.16s-16.35-38.48,31.34-61.84c0,0-34.55,23.35-31.34,61.84Z"/></g><g><circle class="cls-5" cx="1232.08" cy="1316.6" r="69.4"/><circle class="cls-18" cx="1232.08" cy="1316.6" r="59.67"/><g><g><polyline class="cls-19" points="1252.01 1322.82 1263.8 1334.62 1252.42 1346"/><polyline class="cls-19" points="1212.14 1287.2 1200.35 1298.99 1211.73 1310.37"/></g><line class="cls-19" x1="1205.8" y1="1342.88" x2="1258.36" y2="1290.32"/></g></g><g><path class="cls-17" d="M816.45,647.13s-21.51-228.06,62.83-263.08c0,0,29.24-58.13,90.35-67.9,0,0-10.05-5.83-25.81-3.78,0,0,62.13-39.34,123-25,0,0-16.9-20.69-41.75-22.06,0,0,39.8-7.11,89.06,9.35,0,0-9.71-10.29-25.2-16.47,0,0,65.97,5.69,98.49,59.55,.48-3.85-1.95-11.61-4.51-16.26,61.11,9.76,75.59,82.56,75.59,82.56,84.34,35.02,62.83,263.08,62.83,263.08"/><path class="cls-16" d="M1323.6,601.69c-1.47-69.56-13.38-163.65-65.11-185.13,0,0-6.14-66.6-57.16-79.67,0,7.17,0,9.73-2.85,16.15-32.53-53.87-109.55-62.32-109.55-62.32,15.49,6.18,25.2,16.46,25.2,16.46-49.27-16.46-89.07-9.35-89.07-9.35,24.85,1.37,41.75,22.06,41.75,22.06-60.87-14.34-123,25-123,25,15.76-2.06,25.81,3.77,25.81,3.77-61.11,9.76-90.35,67.9-90.35,67.9-51.73,21.48-63.64,115.57-65.11,185.13-1.41-68.41,4.69-192.56,65.11-217.64,0,0,29.24-58.14,90.35-67.9,0,0-10.05-5.83-25.81-3.77,0,0,62.13-39.34,123-25,0,0-16.9-20.69-41.75-22.06,0,0,39.79-7.11,89.07,9.35,0,0-9.71-10.29-25.2-16.46,0,0,65.96,5.68,98.49,59.54,.48-3.85-1.96-11.61-4.51-16.25,61.11,9.76,75.59,82.56,75.59,82.56,60.42,25.08,66.52,149.23,65.11,217.64Z"/><g><path class="cls-9" d="M1270.56,669.66l8.73,126.27c-.32,9.31,36.51,24.77,44.7-11.05,8.17-35.71,9.26-51.27,18.74-72.53,10.28-23.05,8.53-72.19-20.27-80.6-34.48-10.08-51.91,37.92-51.91,37.92Z"/><path class="cls-6" d="M1322.31,706c1.28-5.18,6.05-46.06-9.56-36.39-14.61,9.04-23.28,87.94-13.78,97.2,9.5,9.27,17.34-13.5,14.37-35.65-2.96-22.14-7.5-23.22-7.5-23.22,0,0,3.44-27.9,10.41-28.95,6.97-1.04,5.67,17.1,6.06,27Z"/></g><g><path class="cls-9" d="M869.52,669.66l-8.73,126.27c.32,9.31-36.51,24.77-44.7-11.05-8.17-35.71-9.26-51.27-18.74-72.53-10.28-23.05-8.53-72.19,20.27-80.6,34.48-10.08,51.91,37.92,51.91,37.92Z"/><path class="cls-6" d="M817.78,706c-1.28-5.18-6.05-46.06,9.56-36.39,14.61,9.04,23.28,87.94,13.78,97.2-9.5,9.27-17.34-13.5-14.37-35.65,2.96-22.14,7.5-23.22,7.5-23.22,0,0-3.44-27.9-10.41-28.95-6.97-1.04-5.67,17.1-6.06,27Z"/></g><path class="cls-9" d="M1291.59,696.76c0,1.51,0,3.02-.03,4.53-.02,3.02-.05,6.06-.1,9.11-.09,6.09-.23,12.19-.42,18.26-.09,3.03-.19,6.06-.3,9.05-.16,4.51-.36,8.97-.56,13.36s-.43,8.72-.68,12.94c-.24,4.23-.49,8.37-.77,12.39-.09,1.33-.18,2.66-.28,3.98-.22,2.95-.43,5.83-.65,8.62-.08,.93-.15,1.85-.23,2.76-.3,3.66-.62,7.15-.94,10.47-.11,1.1-.22,2.18-.32,3.25-.27,2.66-.55,5.19-.82,7.57-.08,.72-.16,1.41-.25,2.11-.09,.68-.17,1.36-.25,2.02-.11,.88-.23,1.73-.34,2.56-.11,.83-.23,1.63-.34,2.41-.12,.81-.24,1.63-.36,2.44-15.79,103.03-71.78,140.77-82.96,155.69-10.94,14.62-58.1,73.08-130.4,74-.57,0-1.14,0-1.72,0s-1.14,0-1.72,0c-72.29-.92-119.46-59.38-130.4-74-11.19-14.93-67.18-52.66-82.96-155.69-.12-.81-.24-1.63-.36-2.44-3.61-24.85-7.13-77.19-7.28-125.39-.07-22.06,.56-43.25,2.23-60.54,13.65-142.14,35.18-232.25,220.49-239.7,185.3,7.45,206.84,97.57,220.48,239.7,1.66,17.28,2.3,38.48,2.23,60.54Z"/><path class="cls-2" d="M1068.89,381.1v0c-127.14-.19-197.62,65.14-231.5,162.27l44.21,35.37c-.38-48.09,14.44-90.2,37.41-110.91,15.05-13.56,37.82-27.48,58.71-29.64,37.75-3.89,58.05,8.88,91.16,8.92v0c33.12-.05,53.42-12.82,91.17-8.92,20.89,2.15,43.66,16.08,58.71,29.64,22.98,20.71,37.8,62.82,37.41,110.91l44.21-35.37c-33.88-97.14-104.36-162.46-231.49-162.27Z"/><path class="cls-17" d="M1322.5,630.48c-16.16-151.4-85.16-266.18-253.62-265.93h0c-168.46-.25-237.45,114.53-253.62,265.93,33.29,.32,29.58,66.29,29.58,66.29h12.23c-2.83-25.75-2.33-82.28,21.08-110.66,3.06-3.71,4.36-8.53,3.39-13.19-10-47.92,17.53-103.82,40.5-124.53,15.05-13.56,34.79-24.58,55.68-26.73,37.75-3.89,58.05,8.88,91.16,8.92h0c33.12-.04,53.42-12.82,91.16-8.92,20.89,2.15,40.63,13.17,55.68,26.73,22.98,20.71,50.5,76.61,40.5,124.53-.97,4.66,.33,9.48,3.39,13.19,23.41,28.39,23.91,84.92,21.08,110.66h12.23s-3.71-65.97,29.58-66.29Z"/><g><g><path class="cls-20" d="M942.78,681.58c2.39-18.46,14.17-30.48,26.31-26.85,12.14,3.63,20.04,21.55,17.65,40.01-2.39,18.46-14.17,30.48-26.31,26.85-12.14-3.63-20.04-21.55-17.65-40.01Z"/><path class="cls-7" d="M972.83,688.12c4.68,.92,9.22-2.12,10.14-6.8,.92-4.68-2.12-9.22-6.8-10.14-4.68-.92-9.22,2.12-10.14,6.8-.92,4.68,2.12,9.22,6.8,10.14h0Z"/></g><g><path class="cls-20" d="M1151.03,681.58c2.39-18.46,14.17-30.48,26.31-26.85,12.14,3.63,20.04,21.55,17.65,40.01-2.39,18.46-14.17,30.48-26.31,26.85-12.14-3.63-20.04-21.55-17.65-40.01Z"/><path class="cls-7" d="M1181.08,688.12c4.68,.92,9.22-2.12,10.14-6.8,.92-4.68-2.12-9.22-6.8-10.14-4.68-.92-9.22,2.12-10.14,6.8-.92,4.68,2.12,9.22,6.8,10.14h0Z"/></g></g><g><path class="cls-23" d="M1022.42,651.3s10.84-18.34-5.07-30.43c-9.03-6.86-109.16-15.01-123.75,34.6,0,0,69.62-19.88,128.82-4.17Z"/><path class="cls-23" d="M1117.66,651.3s-10.84-18.34,5.07-30.43c9.03-6.86,109.16-15.01,123.75,34.6,0,0-69.62-19.88-128.82-4.17Z"/></g><g class="cls-1"><path class="cls-17" d="M1280.7,696.76c-7.84,64.61-22.34,112.14-36.98,143.83-10.57,22.89-26.67,43.38-34.4,42.38-7.19-.93-10.67-19.32-24.87-33.3-19.75-19.46-65.93-42.46-115.57-50.17t0,.02v-.02c-49.63,7.71-95.81,30.71-115.56,50.17-14.21,13.98-17.67,32.38-24.87,33.3-7.73,1.01-23.83-19.49-34.4-42.38-14.63-31.69-29.14-79.22-36.98-143.83h-10.9c.15,48.2,3.66,100.54,7.28,125.39,.12,.81,.24,1.63,.36,2.44,15.78,103.03,71.77,140.77,82.96,155.69,10.93,14.62,58.1,73.08,130.4,74,.57,0,1.14,0,1.72,0s1.14,0,1.72,0c72.29-.92,119.45-59.38,130.4-74,11.18-14.93,67.17-52.66,82.96-155.69,.12-.81,.24-1.63,.36-2.44,.11-.78,.23-1.58,.34-2.41,.11-.83,.23-1.68,.34-2.56,.09-.66,.17-1.33,.25-2.02,.09-.69,.17-1.39,.25-2.11,.28-2.38,.55-4.91,.82-7.57,.11-1.07,.22-2.15,.32-3.25,.32-3.32,.63-6.81,.94-10.47,.08-.91,.15-1.84,.23-2.76,.23-2.79,.44-5.67,.65-8.62,.1-1.32,.19-2.64,.28-3.98,.28-4.02,.53-8.16,.77-12.39,.24-4.23,.47-8.55,.68-12.94s.4-8.85,.56-13.36c.11-3,.22-6.02,.3-9.05,.18-6.06,.33-12.16,.42-18.26,.05-3.04,.09-6.08,.1-9.11,.02-1.52,.03-3.02,.03-4.53h-10.89Zm-110.61,232.38c-11.12,23.58-34.67,58.08-57.94,63.34-21.71,4.91-27.19-8.71-43.27-8.71s-21.57,13.62-43.28,8.71c-23.26-5.26-46.8-39.76-57.93-63.34-9.2-19.52-4.71-50.61,19.05-65.87,21.02-13.5,82.14-10.88,82.14-10.88v-.03s0,.02,0,.03c0,0,61.13-2.62,82.15,10.88,23.77,15.27,28.25,46.35,19.05,65.87Z"/><path class="cls-17" d="M1043.02,927.56c-3.13-.63-5.75,2.4-4.66,5.41,7.94,21.87,22.19,30.86,33,30.83,10.1-.03,24.16-12.12,32.11-30.4,1.32-3.03-1.27-6.29-4.52-5.68-14.48,2.74-41.27,2.78-55.92-.15Z"/></g><g><g><path class="cls-11" d="M1125.5,909.38c-2.14,1.49-4.46,2.91-6.99,4.24-10.95,5.78-25.7,9.89-45.72,10.52-5.15,.17-9.99,.09-14.52-.21-.33-.02-.66-.04-.99-.06-2.91-.21-5.68-.51-8.33-.89-1.12-.15-2.23-.33-3.31-.53-.54-.09-1.08-.19-1.61-.29-3.97-.76-7.64-1.71-11.04-2.81-.23-.08-.46-.15-.69-.23-4.93-1.65-9.26-3.65-13.06-5.87h0c-29.44-16.99-28.87-47.84-28.87-48.16h17.2l46.08-.05h22.2c.1-.08,.08,0,.19,0l56.38-.08,13.6-.02h3.68s.98,26.84-24.2,44.45Z"/><path class="cls-12" d="M1118.52,913.63c-10.95,5.78-25.7,9.89-45.72,10.52-5.15,.17-9.99,.09-14.52-.21-.33-.02-.66-.04-.99-.06-2.9-.21-5.67-.5-8.33-.89-1.12-.15-2.23-.33-3.31-.53-.54-.09-1.08-.19-1.61-.29-3.97-.76-7.64-1.71-11.04-2.81-.23-.08-.46-.15-.69-.23-4.93-1.65-9.26-3.65-13.06-5.87,35.64-11.13,65.75-7.83,99.26,.38Z"/><path class="cls-7" d="M1146.03,864.94c-4,19.15-37.23,27.6-76.82,27.3-38.68-.29-69.94-9.21-74.82-27.16h13.19l46.09-.04h22.19c.1-.08,.09,0,.19,0l56.39-.08h13.6Z"/></g><path class="cls-6" d="M1115.16,794.53c-6.6,17.29-45.13,16.75-45.13,16.75,0,0-38.5,.54-45.09-16.75-3.2-8.36-1.25-13.98,1.62-17.56,9.63,14.17,43.47,13.71,43.47,13.71,0,0,33.8,.46,43.52-13.67,2.83,3.54,4.82,9.17,1.62,17.52Z"/></g><g class="cls-21"><path class="cls-2" d="M940.73,727.26c18.76,10.5,32.85,8.91,51.78,0-14.98,13.92-37.25,15.34-51.78,0h0Z"/><path class="cls-2" d="M1145.26,727.26c18.76,10.5,32.85,8.91,51.78,0-14.98,13.92-37.25,15.34-51.78,0h0Z"/></g><g><path class="cls-13" d="M1201.33,336.89c14.56,9.8,25.29,32.01,18.22,49.06-1.85-17.59-10.34-33.55-18.22-49.06h0Z"/><path class="cls-13" d="M1100.09,299.3c22.23,7.75,40.34,25.83,50.01,47.12,7.44,16.63,9.63,35.75,6.37,53.56-1.22-20.21-5.22-40.03-15.22-57.66-9.78-17.52-24.28-32.17-41.16-43.02h0Z"/><path class="cls-13" d="M1093.41,399.98c-8.59-33.12-27.47-65.73-63.04-73.68-11.06-2.5-22.7-2.83-34.42-2.04,25.12-7.32,52.24-3.46,71.54,15.31,15.95,15.65,24.88,38.29,25.92,60.41h0Z"/><path class="cls-13" d="M959.81,364.55c18.14-11.3,46.21-10.21,59.2,8.43,1.83,2.5,3.2,5.29,4.27,8.12-.56-.53-1.08-1.07-1.62-1.6-3.27-3.4-6.92-6.42-10.88-8.96-15.22-9.56-33.72-8.58-50.97-5.99h0Z"/></g></g></g></g></g></g></svg>